<svg width="24" height="25" viewBox="0 0 24 25" fill="none" xmlns="http://www.w3.org/2000/svg">
<path fill-rule="evenodd" clip-rule="evenodd" d="M4.54 2.33008H7.92C9.33 2.33008 10.46 3.4894 10.46 4.91184V8.34847C10.46 9.77998 9.33 10.9292 7.92 10.9292H4.54C3.14 10.9292 2 9.77998 2 8.34847V4.91184C2 3.4894 3.14 2.33008 4.54 2.33008ZM4.54 13.8927H7.92C9.33 13.8927 10.46 15.043 10.46 16.4745V19.9111C10.46 21.3326 9.33 22.4919 7.92 22.4919H4.54C3.14 22.4919 2 21.3326 2 19.9111V16.4745C2 15.043 3.14 13.8927 4.54 13.8927ZM19.4601 2.33008H16.0801C14.6701 2.33008 13.5401 3.4894 13.5401 4.91184V8.34847C13.5401 9.77998 14.6701 10.9292 16.0801 10.9292H19.4601C20.8601 10.9292 22.0001 9.77998 22.0001 8.34847V4.91184C22.0001 3.4894 20.8601 2.33008 19.4601 2.33008ZM16.0801 13.8927H19.4601C20.8601 13.8927 22.0001 15.043 22.0001 16.4745V19.9111C22.0001 21.3326 20.8601 22.4919 19.4601 22.4919H16.0801C14.6701 22.4919 13.5401 21.3326 13.5401 19.9111V16.4745C13.5401 15.043 14.6701 13.8927 16.0801 13.8927Z" fill="#6254FF"/>
</svg>
