<svg width="24" height="24" viewBox="0 0 24 24" fill="none" xmlns="http://www.w3.org/2000/svg">
<path fill-rule="evenodd" clip-rule="evenodd" d="M10.4453 1.82344C9.64089 1.82344 8.95655 2.38242 8.76445 3.13584H15.2237C15.0316 2.38242 14.3472 1.82344 13.5428 1.82344H10.4453ZM17.0485 3.13517H19.4257C21.947 3.13517 24 5.21314 24 7.76502C24 7.76502 23.928 8.84532 23.904 10.3497C23.9016 10.4688 23.8439 10.5855 23.7491 10.6559C23.1716 11.0825 22.6433 11.4349 22.5953 11.4592C20.6023 12.7959 18.2863 13.7364 15.8191 14.2043C15.6582 14.2359 15.4998 14.152 15.4181 14.0086C14.7266 12.8105 13.4347 12.0303 11.994 12.0303C10.5629 12.0303 9.25903 12.802 8.54707 14.0013C8.46423 14.1423 8.30815 14.2237 8.14847 14.1933C5.70165 13.7243 3.38569 12.7849 1.4047 11.4713L0.252126 10.6693C0.156078 10.6086 0.096048 10.4992 0.096048 10.3777C0.06003 9.75793 0 7.76502 0 7.76502C0 5.21314 2.05303 3.13517 4.57429 3.13517H6.93947C7.16758 1.37316 8.64432 0 10.4452 0H13.5428C15.3437 0 16.8204 1.37316 17.0485 3.13517ZM23.5917 12.9769L23.5437 13.0012C21.1185 14.6296 18.201 15.7111 15.1395 16.1607C14.7073 16.2215 14.275 15.942 14.155 15.5045C13.8908 14.5081 13.0384 13.8519 12.0179 13.8519H12.0059H11.9819C10.9614 13.8519 10.109 14.5081 9.84482 15.5045C9.72476 15.942 9.29255 16.2215 8.86033 16.1607C5.7988 15.7111 2.88134 14.6296 0.456131 13.0012C0.444125 12.9891 0.324065 12.9162 0.228017 12.9769C0.119963 13.0377 0.119963 13.1835 0.119963 13.1835L0.204005 19.3809C0.204005 21.9328 2.24503 23.9986 4.76629 23.9986H19.2215C21.7428 23.9986 23.7838 21.9328 23.7838 19.3809L23.8798 13.1835C23.8798 13.1835 23.8798 13.0377 23.7718 12.9769C23.7118 12.9405 23.6397 12.9526 23.5917 12.9769ZM12.8943 18.0687C12.8943 18.5791 12.4981 18.9801 11.9938 18.9801C11.5016 18.9801 11.0934 18.5791 11.0934 18.0687V16.5011C11.0934 16.0029 11.5016 15.5898 11.9938 15.5898C12.4981 15.5898 12.8943 16.0029 12.8943 16.5011V18.0687Z" fill="#3A36DB"/>
</svg>
