<svg width="24" height="25" viewBox="0 0 24 25" fill="none" xmlns="http://www.w3.org/2000/svg">
<g opacity="0.4">
<path fill-rule="evenodd" clip-rule="evenodd" d="M20.4023 14.0664C20.76 14.2579 21.036 14.5604 21.2301 14.8628C21.6083 15.4878 21.5776 16.254 21.2097 16.9294L20.4943 18.1392C20.1162 18.7843 19.411 19.1876 18.6855 19.1876C18.3278 19.1876 17.9292 19.0868 17.6022 18.8852C17.3365 18.7138 17.0299 18.6533 16.7029 18.6533C15.6911 18.6533 14.8429 19.49 14.8122 20.488C14.8122 21.6474 13.872 22.5547 12.6968 22.5547H11.3069C10.1215 22.5547 9.18125 21.6474 9.18125 20.488C9.16081 19.49 8.31259 18.6533 7.30085 18.6533C6.96361 18.6533 6.65702 18.7138 6.40153 18.8852C6.0745 19.0868 5.66572 19.1876 5.31825 19.1876C4.58245 19.1876 3.87729 18.7843 3.49917 18.1392L2.79402 16.9294C2.4159 16.2742 2.39546 15.4878 2.77358 14.8628C2.93709 14.5604 3.24368 14.2579 3.59115 14.0664C3.87729 13.9253 4.06125 13.6934 4.23498 13.4212C4.74596 12.5542 4.43937 11.4151 3.57071 10.901C2.55897 10.3263 2.23194 9.04604 2.81446 8.04802L3.49917 6.85845C4.09191 5.86043 5.35913 5.50759 6.38109 6.09229C7.27019 6.57619 8.425 6.25359 8.9462 5.3967C9.10972 5.11443 9.20169 4.812 9.18125 4.50957C9.16081 4.11641 9.27323 3.74341 9.4674 3.44098C9.84553 2.81595 10.5302 2.41271 11.2763 2.39255H12.7172C13.4735 2.39255 14.1582 2.81595 14.5363 3.44098C14.7203 3.74341 14.8429 4.11641 14.8122 4.50957C14.7918 4.812 14.8838 5.11443 15.0473 5.3967C15.5685 6.25359 16.7233 6.57619 17.6226 6.09229C18.6344 5.50759 19.9118 5.86043 20.4943 6.85845L21.179 8.04802C21.7718 9.04604 21.4447 10.3263 20.4228 10.901C19.5541 11.4151 19.2475 12.5542 19.7687 13.4212C19.9322 13.6934 20.1162 13.9253 20.4023 14.0664ZM9.10938 12.4838C9.10938 14.0665 10.4073 15.3266 12.0117 15.3266C13.6162 15.3266 14.8834 14.0665 14.8834 12.4838C14.8834 10.901 13.6162 9.63083 12.0117 9.63083C10.4073 9.63083 9.10938 10.901 9.10938 12.4838Z" fill="white"/>
</g>
</svg>
