<svg width="24" height="25" viewBox="0 0 24 25" fill="none" xmlns="http://www.w3.org/2000/svg">
<g opacity="0.4">
<path fill-rule="evenodd" clip-rule="evenodd" d="M21.7872 10.8147C21.6518 10.9473 21.4681 11.023 21.2747 11.023C20.559 11.023 19.9787 11.5913 19.9787 12.2827C19.9787 12.9789 20.5522 13.5443 21.2611 13.5519C21.6605 13.5557 22 13.8285 22 14.2196V16.649C22 18.6939 20.3075 20.3523 18.2186 20.3523H15.0658C14.7398 20.3523 14.4758 20.0937 14.4758 19.7746V17.7288C14.4758 17.331 14.1567 17.0184 13.7505 17.0184C13.354 17.0184 13.0251 17.331 13.0251 17.7288V19.7746C13.0251 20.0937 12.7611 20.3523 12.4362 20.3523H5.78143C3.70213 20.3523 2 18.6948 2 16.649V14.2196C2 13.8285 2.33946 13.5557 2.73888 13.5519C3.44874 13.5443 4.02128 12.9789 4.02128 12.2827C4.02128 11.6103 3.46035 11.0988 2.72534 11.0988C2.53191 11.0988 2.34816 11.023 2.21277 10.8904C2.07737 10.7578 2 10.5779 2 10.3885V7.93539C2 5.89337 3.706 4.22263 5.7911 4.22263H12.4362C12.7611 4.22263 13.0251 4.48119 13.0251 4.80038V7.22504C13.0251 7.61336 13.354 7.93539 13.7505 7.93539C14.1567 7.93539 14.4758 7.61336 14.4758 7.22504V4.80038C14.4758 4.48119 14.7398 4.22263 15.0658 4.22263H18.2186C20.3075 4.22263 22 5.88011 22 7.92592V10.3127C22 10.5021 21.9226 10.6821 21.7872 10.8147ZM13.7507 15.1819C14.1569 15.1819 14.4761 14.8598 14.4761 14.4715V10.683C14.4761 10.2947 14.1569 9.97263 13.7507 9.97263C13.3542 9.97263 13.0254 10.2947 13.0254 10.683V14.4715C13.0254 14.8598 13.3542 15.1819 13.7507 15.1819Z" fill="white"/>
</g>
</svg>
